<mxfile host="app.diagrams.net" modified="2024-05-24T19:33:05.670Z" agent="Mozilla/5.0 (Macintosh; Intel Mac OS X 10_15_7) AppleWebKit/605.1.15 (KHTML, like Gecko) Version/17.5 Safari/605.1.15" etag="1Vd3DWCPzUSyNoPI7VsC" version="24.4.6" type="github" pages="3">
  <diagram name="Варианты использования" id="eJAZB0x1PvuYRLuYW8T5">
    <mxGraphModel dx="934" dy="644" grid="1" gridSize="10" guides="1" tooltips="1" connect="1" arrows="1" fold="1" page="1" pageScale="1" pageWidth="827" pageHeight="1169" math="0" shadow="0">
      <root>
        <mxCell id="0" />
        <mxCell id="1" parent="0" />
        <mxCell id="CeuvLrIGoF9XIlCRF7AG-6" value="" style="edgeStyle=orthogonalEdgeStyle;rounded=0;orthogonalLoop=1;jettySize=auto;html=1;" edge="1" parent="1" source="CeuvLrIGoF9XIlCRF7AG-1" target="CeuvLrIGoF9XIlCRF7AG-5">
          <mxGeometry relative="1" as="geometry" />
        </mxCell>
        <mxCell id="CeuvLrIGoF9XIlCRF7AG-1" value="Покупатель" style="shape=umlActor;verticalLabelPosition=bottom;verticalAlign=top;html=1;outlineConnect=0;" vertex="1" parent="1">
          <mxGeometry x="50" y="240" width="30" height="60" as="geometry" />
        </mxCell>
        <mxCell id="CeuvLrIGoF9XIlCRF7AG-8" value="" style="edgeStyle=orthogonalEdgeStyle;rounded=0;orthogonalLoop=1;jettySize=auto;html=1;" edge="1" parent="1" source="CeuvLrIGoF9XIlCRF7AG-5" target="CeuvLrIGoF9XIlCRF7AG-7">
          <mxGeometry relative="1" as="geometry" />
        </mxCell>
        <mxCell id="CeuvLrIGoF9XIlCRF7AG-5" value="Выбор блюд" style="whiteSpace=wrap;html=1;verticalAlign=top;" vertex="1" parent="1">
          <mxGeometry x="120" y="250" width="120" height="40" as="geometry" />
        </mxCell>
        <mxCell id="CeuvLrIGoF9XIlCRF7AG-23" value="" style="edgeStyle=orthogonalEdgeStyle;rounded=0;orthogonalLoop=1;jettySize=auto;html=1;" edge="1" parent="1" source="CeuvLrIGoF9XIlCRF7AG-7" target="CeuvLrIGoF9XIlCRF7AG-20">
          <mxGeometry relative="1" as="geometry" />
        </mxCell>
        <mxCell id="CeuvLrIGoF9XIlCRF7AG-7" value="Оформление заказа" style="whiteSpace=wrap;html=1;verticalAlign=top;" vertex="1" parent="1">
          <mxGeometry x="289" y="250" width="125" height="40" as="geometry" />
        </mxCell>
        <mxCell id="CeuvLrIGoF9XIlCRF7AG-22" value="" style="edgeStyle=orthogonalEdgeStyle;rounded=0;orthogonalLoop=1;jettySize=auto;html=1;" edge="1" parent="1" source="CeuvLrIGoF9XIlCRF7AG-9" target="CeuvLrIGoF9XIlCRF7AG-21">
          <mxGeometry relative="1" as="geometry" />
        </mxCell>
        <mxCell id="CeuvLrIGoF9XIlCRF7AG-9" value="Просмотр статуса заказа" style="whiteSpace=wrap;html=1;verticalAlign=top;" vertex="1" parent="1">
          <mxGeometry x="470" y="250" width="115" height="40" as="geometry" />
        </mxCell>
        <mxCell id="CeuvLrIGoF9XIlCRF7AG-25" value="" style="edgeStyle=orthogonalEdgeStyle;rounded=0;orthogonalLoop=1;jettySize=auto;html=1;" edge="1" parent="1" source="CeuvLrIGoF9XIlCRF7AG-12" target="CeuvLrIGoF9XIlCRF7AG-24">
          <mxGeometry relative="1" as="geometry" />
        </mxCell>
        <mxCell id="CeuvLrIGoF9XIlCRF7AG-12" value="Курьер" style="shape=umlActor;verticalLabelPosition=bottom;verticalAlign=top;html=1;outlineConnect=0;" vertex="1" parent="1">
          <mxGeometry x="50" y="501" width="30" height="60" as="geometry" />
        </mxCell>
        <mxCell id="CeuvLrIGoF9XIlCRF7AG-18" value="" style="edgeStyle=orthogonalEdgeStyle;rounded=0;orthogonalLoop=1;jettySize=auto;html=1;" edge="1" parent="1" source="CeuvLrIGoF9XIlCRF7AG-15" target="CeuvLrIGoF9XIlCRF7AG-17">
          <mxGeometry relative="1" as="geometry" />
        </mxCell>
        <mxCell id="CeuvLrIGoF9XIlCRF7AG-15" value="Доставка заказа" style="whiteSpace=wrap;html=1;verticalAlign=top;" vertex="1" parent="1">
          <mxGeometry x="480" y="510" width="120" height="30" as="geometry" />
        </mxCell>
        <mxCell id="CeuvLrIGoF9XIlCRF7AG-17" value="Принятие оплаты" style="whiteSpace=wrap;html=1;verticalAlign=top;" vertex="1" parent="1">
          <mxGeometry x="662.5" y="510" width="120" height="30" as="geometry" />
        </mxCell>
        <mxCell id="CeuvLrIGoF9XIlCRF7AG-19" value="Приложение" style="ellipse;whiteSpace=wrap;html=1;aspect=fixed;" vertex="1" parent="1">
          <mxGeometry x="160" y="360" width="80" height="80" as="geometry" />
        </mxCell>
        <mxCell id="CeuvLrIGoF9XIlCRF7AG-20" value="Заказ добавлен в очередь" style="rounded=0;whiteSpace=wrap;html=1;" vertex="1" parent="1">
          <mxGeometry x="291.5" y="320" width="120" height="60" as="geometry" />
        </mxCell>
        <mxCell id="CeuvLrIGoF9XIlCRF7AG-21" value="Оплата заказа" style="whiteSpace=wrap;html=1;verticalAlign=top;" vertex="1" parent="1">
          <mxGeometry x="662.5" y="250" width="117.5" height="40" as="geometry" />
        </mxCell>
        <mxCell id="CeuvLrIGoF9XIlCRF7AG-24" value="Выбор статуса готовности к работе" style="whiteSpace=wrap;html=1;verticalAlign=top;" vertex="1" parent="1">
          <mxGeometry x="115" y="510" width="125" height="40" as="geometry" />
        </mxCell>
        <mxCell id="CeuvLrIGoF9XIlCRF7AG-26" value="" style="endArrow=classic;html=1;rounded=0;exitX=1;exitY=0;exitDx=0;exitDy=0;entryX=0;entryY=1;entryDx=0;entryDy=0;" edge="1" parent="1" source="CeuvLrIGoF9XIlCRF7AG-24" target="CeuvLrIGoF9XIlCRF7AG-28">
          <mxGeometry width="50" height="50" relative="1" as="geometry">
            <mxPoint x="360" y="420" as="sourcePoint" />
            <mxPoint x="270" y="460" as="targetPoint" />
          </mxGeometry>
        </mxCell>
        <mxCell id="CeuvLrIGoF9XIlCRF7AG-28" value="Курьер добавлен в очередь" style="rounded=0;whiteSpace=wrap;html=1;" vertex="1" parent="1">
          <mxGeometry x="289" y="420" width="120" height="60" as="geometry" />
        </mxCell>
        <mxCell id="CeuvLrIGoF9XIlCRF7AG-29" value="" style="endArrow=classic;html=1;rounded=0;exitX=1;exitY=0.5;exitDx=0;exitDy=0;" edge="1" parent="1" source="CeuvLrIGoF9XIlCRF7AG-28">
          <mxGeometry width="50" height="50" relative="1" as="geometry">
            <mxPoint x="410" y="420" as="sourcePoint" />
            <mxPoint x="480" y="400" as="targetPoint" />
          </mxGeometry>
        </mxCell>
        <mxCell id="CeuvLrIGoF9XIlCRF7AG-30" value="" style="endArrow=classic;html=1;rounded=0;exitX=1;exitY=0.5;exitDx=0;exitDy=0;" edge="1" parent="1" source="CeuvLrIGoF9XIlCRF7AG-20">
          <mxGeometry width="50" height="50" relative="1" as="geometry">
            <mxPoint x="360" y="420" as="sourcePoint" />
            <mxPoint x="480" y="400" as="targetPoint" />
          </mxGeometry>
        </mxCell>
        <mxCell id="CeuvLrIGoF9XIlCRF7AG-32" value="" style="edgeStyle=orthogonalEdgeStyle;rounded=0;orthogonalLoop=1;jettySize=auto;html=1;" edge="1" parent="1" source="CeuvLrIGoF9XIlCRF7AG-31" target="CeuvLrIGoF9XIlCRF7AG-9">
          <mxGeometry relative="1" as="geometry" />
        </mxCell>
        <mxCell id="CeuvLrIGoF9XIlCRF7AG-33" value="" style="edgeStyle=orthogonalEdgeStyle;rounded=0;orthogonalLoop=1;jettySize=auto;html=1;" edge="1" parent="1" source="CeuvLrIGoF9XIlCRF7AG-31" target="CeuvLrIGoF9XIlCRF7AG-15">
          <mxGeometry relative="1" as="geometry" />
        </mxCell>
        <mxCell id="CeuvLrIGoF9XIlCRF7AG-31" value="Курьеру назначен заказ" style="rounded=0;whiteSpace=wrap;html=1;" vertex="1" parent="1">
          <mxGeometry x="480" y="370" width="120" height="60" as="geometry" />
        </mxCell>
      </root>
    </mxGraphModel>
  </diagram>
  <diagram id="xmTzDuDRu9AoMfhWg8Xu" name="Последовательность для заказа">
    <mxGraphModel dx="794" dy="547" grid="1" gridSize="10" guides="1" tooltips="1" connect="1" arrows="1" fold="1" page="1" pageScale="1" pageWidth="827" pageHeight="1169" math="0" shadow="0">
      <root>
        <mxCell id="0" />
        <mxCell id="1" parent="0" />
        <mxCell id="QPU9dGvqyt78A09QH0HJ-3" value="" style="edgeStyle=orthogonalEdgeStyle;rounded=0;orthogonalLoop=1;jettySize=auto;html=1;" edge="1" parent="1" source="QPU9dGvqyt78A09QH0HJ-1" target="QPU9dGvqyt78A09QH0HJ-2">
          <mxGeometry relative="1" as="geometry" />
        </mxCell>
        <mxCell id="QPU9dGvqyt78A09QH0HJ-1" value="Выбор блюд" style="rounded=1;whiteSpace=wrap;html=1;" vertex="1" parent="1">
          <mxGeometry x="20" y="210" width="110" height="50" as="geometry" />
        </mxCell>
        <mxCell id="QPU9dGvqyt78A09QH0HJ-5" value="" style="edgeStyle=orthogonalEdgeStyle;rounded=0;orthogonalLoop=1;jettySize=auto;html=1;" edge="1" parent="1" source="QPU9dGvqyt78A09QH0HJ-2" target="QPU9dGvqyt78A09QH0HJ-4">
          <mxGeometry relative="1" as="geometry" />
        </mxCell>
        <mxCell id="QPU9dGvqyt78A09QH0HJ-2" value="Указание данных для доставки" style="whiteSpace=wrap;html=1;rounded=1;" vertex="1" parent="1">
          <mxGeometry x="190" y="207.5" width="95" height="55" as="geometry" />
        </mxCell>
        <mxCell id="QPU9dGvqyt78A09QH0HJ-7" value="" style="edgeStyle=orthogonalEdgeStyle;rounded=0;orthogonalLoop=1;jettySize=auto;html=1;" edge="1" parent="1" source="QPU9dGvqyt78A09QH0HJ-4" target="QPU9dGvqyt78A09QH0HJ-6">
          <mxGeometry relative="1" as="geometry" />
        </mxCell>
        <mxCell id="QPU9dGvqyt78A09QH0HJ-4" value="Оплата" style="whiteSpace=wrap;html=1;rounded=1;" vertex="1" parent="1">
          <mxGeometry x="330" y="207.5" width="77.5" height="55" as="geometry" />
        </mxCell>
        <mxCell id="QPU9dGvqyt78A09QH0HJ-9" value="" style="edgeStyle=orthogonalEdgeStyle;rounded=0;orthogonalLoop=1;jettySize=auto;html=1;" edge="1" parent="1" source="QPU9dGvqyt78A09QH0HJ-6" target="QPU9dGvqyt78A09QH0HJ-8">
          <mxGeometry relative="1" as="geometry" />
        </mxCell>
        <mxCell id="QPU9dGvqyt78A09QH0HJ-6" value="Ожидание/Слежка за статусом" style="whiteSpace=wrap;html=1;rounded=1;" vertex="1" parent="1">
          <mxGeometry x="460" y="207.5" width="100" height="55" as="geometry" />
        </mxCell>
        <mxCell id="QPU9dGvqyt78A09QH0HJ-8" value="Принятие заказа" style="whiteSpace=wrap;html=1;rounded=1;" vertex="1" parent="1">
          <mxGeometry x="610" y="205" width="120" height="60" as="geometry" />
        </mxCell>
      </root>
    </mxGraphModel>
  </diagram>
  <diagram id="DYK7F04DaD9--w07CJt6" name="Состояния заказа">
    <mxGraphModel dx="1059" dy="729" grid="1" gridSize="10" guides="1" tooltips="1" connect="1" arrows="1" fold="1" page="1" pageScale="1" pageWidth="827" pageHeight="1169" math="0" shadow="0">
      <root>
        <mxCell id="0" />
        <mxCell id="1" parent="0" />
        <mxCell id="Imz3ULtOpOqF18Fr4-KS-3" value="" style="edgeStyle=orthogonalEdgeStyle;rounded=0;orthogonalLoop=1;jettySize=auto;html=1;" edge="1" parent="1" source="Imz3ULtOpOqF18Fr4-KS-10" target="Imz3ULtOpOqF18Fr4-KS-2">
          <mxGeometry relative="1" as="geometry" />
        </mxCell>
        <mxCell id="Imz3ULtOpOqF18Fr4-KS-1" value="Оформлен" style="rounded=1;whiteSpace=wrap;html=1;" vertex="1" parent="1">
          <mxGeometry x="30" y="170" width="120" height="60" as="geometry" />
        </mxCell>
        <mxCell id="Imz3ULtOpOqF18Fr4-KS-7" value="" style="edgeStyle=orthogonalEdgeStyle;rounded=0;orthogonalLoop=1;jettySize=auto;html=1;" edge="1" parent="1" source="Imz3ULtOpOqF18Fr4-KS-12" target="Imz3ULtOpOqF18Fr4-KS-6">
          <mxGeometry relative="1" as="geometry" />
        </mxCell>
        <mxCell id="Imz3ULtOpOqF18Fr4-KS-2" value="Оплачен" style="whiteSpace=wrap;html=1;rounded=1;" vertex="1" parent="1">
          <mxGeometry x="400" y="170" width="120" height="60" as="geometry" />
        </mxCell>
        <mxCell id="Imz3ULtOpOqF18Fr4-KS-9" value="" style="edgeStyle=orthogonalEdgeStyle;rounded=0;orthogonalLoop=1;jettySize=auto;html=1;" edge="1" parent="1" source="Imz3ULtOpOqF18Fr4-KS-6" target="Imz3ULtOpOqF18Fr4-KS-8">
          <mxGeometry relative="1" as="geometry" />
        </mxCell>
        <mxCell id="Imz3ULtOpOqF18Fr4-KS-6" value="Подбор курьера" style="whiteSpace=wrap;html=1;rounded=1;" vertex="1" parent="1">
          <mxGeometry x="770" y="170" width="120" height="60" as="geometry" />
        </mxCell>
        <mxCell id="Imz3ULtOpOqF18Fr4-KS-8" value="Доставка" style="whiteSpace=wrap;html=1;rounded=1;" vertex="1" parent="1">
          <mxGeometry x="950" y="170" width="120" height="60" as="geometry" />
        </mxCell>
        <mxCell id="Imz3ULtOpOqF18Fr4-KS-11" value="" style="edgeStyle=orthogonalEdgeStyle;rounded=0;orthogonalLoop=1;jettySize=auto;html=1;" edge="1" parent="1" source="Imz3ULtOpOqF18Fr4-KS-1" target="Imz3ULtOpOqF18Fr4-KS-10">
          <mxGeometry relative="1" as="geometry">
            <mxPoint x="150" y="200" as="sourcePoint" />
            <mxPoint x="370" y="200" as="targetPoint" />
          </mxGeometry>
        </mxCell>
        <mxCell id="Imz3ULtOpOqF18Fr4-KS-10" value="Ожидает оплату" style="rounded=1;whiteSpace=wrap;html=1;" vertex="1" parent="1">
          <mxGeometry x="210" y="170" width="120" height="60" as="geometry" />
        </mxCell>
        <mxCell id="Imz3ULtOpOqF18Fr4-KS-13" value="" style="edgeStyle=orthogonalEdgeStyle;rounded=0;orthogonalLoop=1;jettySize=auto;html=1;" edge="1" parent="1" source="Imz3ULtOpOqF18Fr4-KS-2" target="Imz3ULtOpOqF18Fr4-KS-12">
          <mxGeometry relative="1" as="geometry">
            <mxPoint x="500" y="200" as="sourcePoint" />
            <mxPoint x="740" y="200" as="targetPoint" />
          </mxGeometry>
        </mxCell>
        <mxCell id="Imz3ULtOpOqF18Fr4-KS-12" value="Заказ готовится" style="rounded=1;whiteSpace=wrap;html=1;" vertex="1" parent="1">
          <mxGeometry x="580" y="170" width="120" height="60" as="geometry" />
        </mxCell>
      </root>
    </mxGraphModel>
  </diagram>
</mxfile>
